<svg xmlns="http://www.w3.org/2000/svg" version="1.1" xmlns:xlink="http://www.w3.org/1999/xlink" xmlns:svgjs="http://svgjs.dev/svgjs" width="1440" height="560" preserveAspectRatio="none" viewBox="0 0 1440 560"><g mask="url(&quot;#SvgjsMask1035&quot;)" fill="none"><rect width="1440" height="560" x="0" y="0" fill="rgba(255, 255, 255, 1)"></rect><path d="M1070.19 29.04 a149.48 149.48 0 1 0 298.96 0 a149.48 149.48 0 1 0 -298.96 0z" fill="rgba(81, 81, 81, 0.4)" class="triangle-float3"></path><path d="M1274.28 287.41 a107.56 107.56 0 1 0 215.12 0 a107.56 107.56 0 1 0 -215.12 0z" fill="rgba(81, 81, 81, 0.4)" class="triangle-float3"></path><path d="M-22.58 18.69 a137.54 137.54 0 1 0 275.08 0 a137.54 137.54 0 1 0 -275.08 0z" fill="rgba(81, 81, 81, 0.4)" class="triangle-float3"></path><path d="M706.59 558.19 a110.42 110.42 0 1 0 220.84 0 a110.42 110.42 0 1 0 -220.84 0z" fill="rgba(81, 81, 81, 0.4)" class="triangle-float2"></path></g><defs><mask id="SvgjsMask1035"><rect width="1440" height="560" fill="#ffffff"></rect></mask><style>
                @keyframes float1 {
                    0%{transform: translate(0, 0)}
                    50%{transform: translate(-10px, 0)}
                    100%{transform: translate(0, 0)}
                }

                .triangle-float1 {
                    animation: float1 5s infinite;
                }

                @keyframes float2 {
                    0%{transform: translate(0, 0)}
                    50%{transform: translate(-5px, -5px)}
                    100%{transform: translate(0, 0)}
                }

                .triangle-float2 {
                    animation: float2 4s infinite;
                }

                @keyframes float3 {
                    0%{transform: translate(0, 0)}
                    50%{transform: translate(0, -10px)}
                    100%{transform: translate(0, 0)}
                }

                .triangle-float3 {
                    animation: float3 6s infinite;
                }
            </style></defs></svg>