<svg xmlns="http://www.w3.org/2000/svg" version="1.1" xmlns:xlink="http://www.w3.org/1999/xlink" xmlns:svgjs="http://svgjs.dev/svgjs" width="1440" height="560" preserveAspectRatio="none" viewBox="0 0 1440 560"><g mask="url(&quot;#SvgjsMask1214&quot;)" fill="none"><path d="M1430.62,456.577C1475.297,458.043,1519.14,437.431,1541.589,398.776C1564.129,359.965,1559.167,312.313,1537.101,273.231C1514.621,233.416,1476.325,203.524,1430.62,202.234C1382.744,200.883,1335.365,224.457,1313.195,266.912C1292.305,306.916,1307.827,353.516,1331.583,391.887C1353.83,427.82,1388.381,455.191,1430.62,456.577" fill="rgba(0, 0, 0, 1)" class="triangle-float2"></path><path d="M202.799,644.066C237.146,646.662,267.994,621.911,283.343,591.075C297.246,563.144,287.559,531.661,272.298,504.448C256.591,476.44,234.908,447.879,202.799,447.452C170.189,447.018,143.791,472.991,130.019,502.553C118.174,527.979,128.075,555.364,140.904,580.308C155.424,608.54,171.142,641.673,202.799,644.066" fill="rgba(0, 0, 0, 1)" class="triangle-float2"></path><path d="M714.782,555.324C731.401,555.664,747.515,548.091,756.043,533.823C764.786,519.195,765.616,500.288,756.143,486.121C747.471,473.152,730.371,471.514,714.782,472.115C700.511,472.665,686.295,477.08,678.598,489.11C670.291,502.093,668.953,518.668,676.344,532.193C684.03,546.257,698.758,554.996,714.782,555.324" fill="rgba(0, 0, 0, 1)" class="triangle-float2"></path><path d="M189.486,385.812C237.063,387.869,289.003,374.452,311.692,332.584C333.698,291.977,309.923,245.824,287.111,205.665C263.893,164.791,236.48,118.604,189.486,117.448C141.27,116.262,105.164,157.723,83.173,200.649C63.282,239.476,62.586,284.92,84.308,322.753C106.123,360.748,145.715,383.92,189.486,385.812" fill="rgba(0, 0, 0, 1)" class="triangle-float2"></path><path d="M1095.153,633.53C1125.122,631.891,1147.276,609.504,1162.935,583.898C1179.533,556.756,1194.016,524.4,1179.063,496.318C1163.475,467.042,1128.288,455.145,1095.153,456.597C1064.529,457.939,1038.951,476.928,1023.085,503.155C1006.538,530.507,997.721,564.109,1013.187,592.087C1029.062,620.805,1062.388,635.322,1095.153,633.53" fill="rgba(0, 0, 0, 1)" class="triangle-float2"></path><path d="M1117.737,300.06C1144.975,300.924,1172.967,290.525,1186.386,266.806C1199.643,243.374,1192.947,214.828,1178.978,191.814C1165.607,169.784,1143.505,153.401,1117.737,153.705C1092.431,154.004,1071.391,171.192,1058.952,193.232C1046.748,214.856,1044.264,240.926,1056.235,262.68C1068.631,285.208,1092.037,299.245,1117.737,300.06" fill="rgba(0, 0, 0, 1)" class="triangle-float3"></path></g><defs><mask id="SvgjsMask1214"><rect width="1440" height="560" fill="#ffffff"></rect></mask><style>
                @keyframes float1 {
                    0%{transform: translate(0, 0)}
                    50%{transform: translate(-10px, 0)}
                    100%{transform: translate(0, 0)}
                }

                .triangle-float1 {
                    animation: float1 5s infinite;
                }

                @keyframes float2 {
                    0%{transform: translate(0, 0)}
                    50%{transform: translate(-5px, -5px)}
                    100%{transform: translate(0, 0)}
                }

                .triangle-float2 {
                    animation: float2 4s infinite;
                }

                @keyframes float3 {
                    0%{transform: translate(0, 0)}
                    50%{transform: translate(0, -10px)}
                    100%{transform: translate(0, 0)}
                }

                .triangle-float3 {
                    animation: float3 6s infinite;
                }
            </style></defs></svg>