<svg xmlns="http://www.w3.org/2000/svg" version="1.1" xmlns:xlink="http://www.w3.org/1999/xlink" xmlns:svgjs="http://svgjs.dev/svgjs" width="1440" height="560" preserveAspectRatio="none" viewBox="0 0 1440 560"><g mask="url(&quot;#SvgjsMask1012&quot;)" fill="none"><path d="M110.042,562.547C158.379,565.566,204.991,539.211,228.687,496.973C251.924,455.553,246.369,404.577,221.293,364.243C197.618,326.162,154.875,306.994,110.042,306.136C63.448,305.245,13.247,318.801,-8.833,359.841C-30.152,399.467,-8.198,444.783,14.565,483.598C36.956,521.779,65.866,559.787,110.042,562.547" fill="rgba(0, 0, 0, 1)" class="triangle-float1"></path><path d="M112.361,321.135C138.318,318.974,151.783,292.32,163.268,268.942C173.019,249.094,179.252,226.466,168.31,207.249C157.273,187.864,134.66,178.928,112.361,179.534C91.141,180.11,73.44,192.642,61.44,210.152C47.14,231.017,33.75,255.856,44.299,278.847C56.237,304.866,83.833,323.51,112.361,321.135" fill="rgba(0, 0, 0, 1)" class="triangle-float1"></path><path d="M1330.568,630.346C1389.445,629.613,1451.977,612.122,1479.694,560.171C1506.311,510.281,1481.049,452.445,1451.055,404.51C1423.364,360.256,1382.767,322.463,1330.568,321.845C1277.438,321.216,1233.772,356.904,1205.033,401.595C1173.121,451.221,1146.487,512.24,1174.872,563.964C1203.964,616.976,1270.103,631.098,1330.568,630.346" fill="rgba(0, 0, 0, 1)" class="triangle-float2"></path><path d="M1200.151,530.664C1221.686,529.728,1240.472,517.248,1251.243,498.577C1262.006,479.919,1263.127,457.553,1253.418,438.325C1242.6,416.9,1224.149,397.784,1200.151,397.391C1175.634,396.989,1155.763,415.14,1143.773,436.529C1132.082,457.385,1128.45,482.87,1140.735,503.382C1152.736,523.421,1176.815,531.679,1200.151,530.664" fill="rgba(0, 0, 0, 1)" class="triangle-float1"></path><path d="M798.078,410.418C832.704,411.216,862.485,385.562,876.994,354.113C889.547,326.904,877.003,297.582,862.137,271.565C847.106,245.259,828.356,217.074,798.078,215.998C766.498,214.875,740.652,238.921,725.611,266.712C711.343,293.074,711.722,323.85,725.219,350.615C740.382,380.684,764.411,409.642,798.078,410.418" fill="rgba(0, 0, 0, 1)" class="triangle-float1"></path><path d="M823.984,652.387C864.148,655.304,903.041,630.782,920.778,594.629C936.918,561.73,920.911,525.084,901.771,493.835C883.75,464.412,858.487,436.577,823.984,436.599C789.51,436.621,762.191,463.305,746.372,493.935C731.906,521.945,734.953,553.83,748.82,582.141C764.988,615.149,787.326,649.725,823.984,652.387" fill="rgba(0, 0, 0, 1)" class="triangle-float1"></path></g><defs><mask id="SvgjsMask1012"><rect width="1440" height="560" fill="#ffffff"></rect></mask><style>
                @keyframes float1 {
                    0%{transform: translate(0, 0)}
                    50%{transform: translate(-10px, 0)}
                    100%{transform: translate(0, 0)}
                }

                .triangle-float1 {
                    animation: float1 5s infinite;
                }

                @keyframes float2 {
                    0%{transform: translate(0, 0)}
                    50%{transform: translate(-5px, -5px)}
                    100%{transform: translate(0, 0)}
                }

                .triangle-float2 {
                    animation: float2 4s infinite;
                }

                @keyframes float3 {
                    0%{transform: translate(0, 0)}
                    50%{transform: translate(0, -10px)}
                    100%{transform: translate(0, 0)}
                }

                .triangle-float3 {
                    animation: float3 6s infinite;
                }
            </style></defs></svg>